<svg width="16" height="17" viewBox="0 0 16 17" fill="none" xmlns="http://www.w3.org/2000/svg">
<path d="M15.9995 12.0029V14.4163C16.0004 14.6403 15.9545 14.8621 15.8648 15.0674C15.775 15.2727 15.6434 15.4569 15.4783 15.6084C15.3132 15.7599 15.1183 15.8752 14.906 15.947C14.6938 16.0187 14.4689 16.0454 14.2457 16.0252C11.7702 15.7562 9.39235 14.9103 7.30312 13.5555C5.35937 12.3204 3.71141 10.6724 2.47627 8.72864C1.11669 6.62993 0.270593 4.24046 0.00652969 1.75383C-0.0135738 1.53137 0.0128649 1.30716 0.0841619 1.09547C0.155459 0.883785 0.270052 0.689264 0.420646 0.524291C0.57124 0.359319 0.754535 0.227511 0.958861 0.137259C1.16319 0.0470067 1.38407 0.000288349 1.60744 7.79958e-05H4.02086C4.41128 -0.00376454 4.78977 0.134489 5.0858 0.389068C5.38182 0.643648 5.57517 0.997183 5.62981 1.38378C5.73168 2.15613 5.92059 2.91447 6.19295 3.64435C6.30118 3.93229 6.32461 4.24523 6.26045 4.54607C6.19629 4.84692 6.04723 5.12307 5.83093 5.3418L4.80925 6.36348C5.95446 8.37752 7.62206 10.0451 9.6361 11.1903L10.6578 10.1687C10.8765 9.95236 11.1527 9.8033 11.4535 9.73913C11.7544 9.67497 12.0673 9.6984 12.3552 9.80664C13.0851 10.079 13.8435 10.2679 14.6158 10.3698C15.0066 10.4249 15.3635 10.6217 15.6186 10.9228C15.8737 11.2239 16.0093 11.6083 15.9995 12.0029Z" fill="#FEB72B"/>
</svg>
